<svg width="24" height="24" viewBox="0 0 24 24" fill="none" xmlns="http://www.w3.org/2000/svg">
<rect width="24" height="24" fill="white"/>
<path d="M11.9999 2.25C10.3166 2.24963 8.66188 2.68508 7.19679 3.51396C5.7317 4.34285 4.50616 5.53692 3.63947 6.97997C2.77277 8.42301 2.29444 10.0659 2.25104 11.7486C2.20764 13.4314 2.60065 15.0967 3.39181 16.5825L2.32774 19.7747C2.2396 20.039 2.22681 20.3226 2.2908 20.5938C2.35479 20.8649 2.49304 21.1129 2.69004 21.3099C2.88704 21.5069 3.13502 21.6451 3.40618 21.7091C3.67733 21.7731 3.96095 21.7603 4.22524 21.6722L7.41743 20.6081C8.72503 21.3036 10.1739 21.6921 11.654 21.744C13.1342 21.7959 14.6067 21.51 15.9598 20.9079C17.3129 20.3057 18.5111 19.4033 19.4634 18.269C20.4156 17.1346 21.097 15.7983 21.4557 14.3613C21.8144 12.9244 21.841 11.4246 21.5335 9.97578C21.226 8.52701 20.5925 7.16732 19.6811 5.99992C18.7697 4.83253 17.6043 3.88811 16.2733 3.23836C14.9424 2.58861 13.481 2.25061 11.9999 2.25ZM7.87493 13.125C7.65243 13.125 7.43492 13.059 7.24991 12.9354C7.06491 12.8118 6.92071 12.6361 6.83557 12.4305C6.75042 12.225 6.72814 11.9988 6.77155 11.7805C6.81496 11.5623 6.9221 11.3618 7.07944 11.2045C7.23677 11.0472 7.43723 10.94 7.65545 10.8966C7.87368 10.8532 8.09988 10.8755 8.30545 10.9606C8.51102 11.0458 8.68672 11.19 8.81033 11.375C8.93395 11.56 8.99993 11.7775 8.99993 12C8.99993 12.2984 8.8814 12.5845 8.67043 12.7955C8.45945 13.0065 8.1733 13.125 7.87493 13.125ZM11.9999 13.125C11.7774 13.125 11.5599 13.059 11.3749 12.9354C11.1899 12.8118 11.0457 12.6361 10.9606 12.4305C10.8754 12.225 10.8531 11.9988 10.8965 11.7805C10.94 11.5623 11.0471 11.3618 11.2044 11.2045C11.3618 11.0472 11.5622 10.94 11.7805 10.8966C11.9987 10.8532 12.2249 10.8755 12.4304 10.9606C12.636 11.0458 12.8117 11.19 12.9353 11.375C13.059 11.56 13.1249 11.7775 13.1249 12C13.1249 12.2984 13.0064 12.5845 12.7954 12.7955C12.5844 13.0065 12.2983 13.125 11.9999 13.125ZM16.1249 13.125C15.9024 13.125 15.6849 13.059 15.4999 12.9354C15.3149 12.8118 15.1707 12.6361 15.0856 12.4305C15.0004 12.225 14.9781 11.9988 15.0215 11.7805C15.065 11.5623 15.1721 11.3618 15.3294 11.2045C15.4868 11.0472 15.6872 10.94 15.9055 10.8966C16.1237 10.8532 16.3499 10.8755 16.5554 10.9606C16.761 11.0458 16.9367 11.19 17.0603 11.375C17.184 11.56 17.2499 11.7775 17.2499 12C17.2499 12.2984 17.1314 12.5845 16.9204 12.7955C16.7094 13.0065 16.4233 13.125 16.1249 13.125Z" fill="#4A5568"/>
</svg>
