<svg width="24" height="24" viewBox="0 0 24 24" fill="none" xmlns="http://www.w3.org/2000/svg">
<path d="M21 10.8332V19.5004C21 19.8982 20.842 20.2797 20.5607 20.561C20.2794 20.8423 19.8978 21.0004 19.5 21.0004H15.75C15.3522 21.0004 14.9706 20.8423 14.6893 20.561C14.408 20.2797 14.25 19.8982 14.25 19.5004V15.7504C14.25 15.5514 14.171 15.3607 14.0303 15.22C13.8897 15.0794 13.6989 15.0004 13.5 15.0004H10.5C10.3011 15.0004 10.1103 15.0794 9.96967 15.22C9.82902 15.3607 9.75 15.5514 9.75 15.7504V19.5004C9.75 19.8982 9.59196 20.2797 9.31066 20.561C9.02936 20.8423 8.64782 21.0004 8.25 21.0004H4.5C4.10218 21.0004 3.72064 20.8423 3.43934 20.561C3.15804 20.2797 3 19.8982 3 19.5004V10.8332C2.99997 10.6256 3.04303 10.4202 3.12646 10.2301C3.20989 10.04 3.33187 9.86932 3.48469 9.7288L10.9847 2.65255L10.995 2.64223C11.2711 2.39111 11.631 2.25195 12.0042 2.25195C12.3775 2.25195 12.7373 2.39111 13.0134 2.64223C13.0166 2.6459 13.0201 2.64935 13.0238 2.65255L20.5238 9.7288C20.675 9.87006 20.7954 10.0411 20.8774 10.2312C20.9594 10.4212 21.0011 10.6262 21 10.8332Z" fill="#4A5568"/>
</svg>
