<svg width="24" height="24" viewBox="0 0 24 24" fill="none" xmlns="http://www.w3.org/2000/svg">
<rect width="24" height="24" fill="white"/>
<path d="M21.6497 20.6256C21.5838 20.7396 21.4891 20.8343 21.3751 20.9002C21.261 20.966 21.1316 21.0006 21 21.0006H2.99996C2.86838 21.0005 2.73914 20.9657 2.62523 20.8998C2.51133 20.8339 2.41676 20.7393 2.35102 20.6253C2.28529 20.5113 2.2507 20.382 2.25073 20.2504C2.25077 20.1188 2.28542 19.9896 2.35121 19.8756C3.77903 17.4072 5.97934 15.6372 8.54715 14.7981C7.277 14.042 6.29016 12.8898 5.7382 11.5185C5.18624 10.1473 5.09967 8.63272 5.49178 7.20749C5.8839 5.78226 6.73301 4.52515 7.90874 3.62921C9.08446 2.73327 10.5218 2.24805 12 2.24805C13.4781 2.24805 14.9155 2.73327 16.0912 3.62921C17.2669 4.52515 18.116 5.78226 18.5081 7.20749C18.9003 8.63272 18.8137 10.1473 18.2617 11.5185C17.7098 12.8898 16.7229 14.042 15.4528 14.7981C18.0206 15.6372 20.2209 17.4072 21.6487 19.8756C21.7147 19.9895 21.7495 20.1188 21.7497 20.2505C21.7498 20.3821 21.7153 20.5115 21.6497 20.6256Z" fill="#4A5568"/>
</svg>
