<svg width="32" height="32" viewBox="0 0 32 32" fill="none" xmlns="http://www.w3.org/2000/svg">
<path d="M16 21C18.2091 21 20 19.2091 20 17C20 14.7909 18.2091 13 16 13C13.7909 13 12 14.7909 12 17C12 19.2091 13.7909 21 16 21Z" fill="#A0AEC0"/>
<path d="M27 9H23.3125C23.125 9 22.8925 8.87875 22.7113 8.6875L21.09 6.12875C21.0644 6.08814 21.0357 6.04949 21.0044 6.01312C20.4444 5.36 19.6875 5 18.875 5H13.125C12.3125 5 11.5556 5.36 10.9956 6.01312C10.9643 6.04949 10.9356 6.08814 10.91 6.12875L9.28875 8.69125C9.15 8.8425 8.955 9.00375 8.75 9.00375V8.50375C8.75 8.23853 8.64464 7.98418 8.45711 7.79664C8.26957 7.60911 8.01522 7.50375 7.75 7.50375H6.25C5.98478 7.50375 5.73043 7.60911 5.54289 7.79664C5.35536 7.98418 5.25 8.23853 5.25 8.50375V9.00375H5C4.2046 9.00458 3.44202 9.32091 2.87959 9.88334C2.31716 10.4458 2.00083 11.2084 2 12.0037V24C2.00083 24.7954 2.31716 25.558 2.87959 26.1204C3.44202 26.6828 4.2046 26.9992 5 27H27C27.7954 26.9992 28.558 26.6828 29.1204 26.1204C29.6828 25.558 29.9992 24.7954 30 24V12C29.9992 11.2046 29.6828 10.442 29.1204 9.87959C28.558 9.31716 27.7954 9.00083 27 9ZM16 23C14.8133 23 13.6533 22.6481 12.6666 21.9888C11.6799 21.3295 10.9108 20.3925 10.4567 19.2961C10.0026 18.1997 9.88378 16.9933 10.1153 15.8295C10.3468 14.6656 10.9182 13.5965 11.7574 12.7574C12.5965 11.9182 13.6656 11.3468 14.8295 11.1153C15.9933 10.8838 17.1997 11.0026 18.2961 11.4567C19.3925 11.9108 20.3295 12.6799 20.9888 13.6666C21.6481 14.6533 22 15.8133 22 17C21.9982 18.5907 21.3655 20.1158 20.2406 21.2406C19.1158 22.3655 17.5907 22.9982 16 23V23Z" fill="#A0AEC0"/>
</svg>
