<svg width="16" height="16" viewBox="0 0 16 16" fill="none" xmlns="http://www.w3.org/2000/svg">
<path d="M14.9669 11.5667C14.8037 11.3929 14.2278 10.8792 13.169 10.1995C12.1025 9.51386 11.3159 9.08636 11.0903 8.98667C11.0704 8.97785 11.0485 8.97462 11.0269 8.97732C11.0053 8.98002 10.9849 8.98854 10.9678 9.00199C10.6044 9.28542 9.99248 9.80605 9.95966 9.83417C9.74779 10.0157 9.74779 10.0157 9.57435 9.95917C9.26935 9.85917 8.32185 9.35605 7.49623 8.52855C6.6706 7.70105 6.14154 6.73011 6.04154 6.42542C5.98435 6.25167 5.98435 6.25167 6.16654 6.0398C6.19466 6.00699 6.7156 5.39511 6.99904 5.03199C7.01248 5.01489 7.02101 4.99445 7.02371 4.97286C7.02641 4.95128 7.02317 4.92937 7.01435 4.90949C6.91466 4.68355 6.48716 3.8973 5.80154 2.83074C5.12091 1.7723 4.60779 1.19636 4.43404 1.03324C4.41809 1.01819 4.39839 1.00772 4.37699 1.00294C4.3556 0.998153 4.33331 0.999228 4.31248 1.00605C3.70512 1.21476 3.11912 1.48108 2.56248 1.80136C2.02511 2.11374 1.51636 2.47295 1.04216 2.8748C1.02561 2.88887 1.0132 2.90718 1.00626 2.92777C0.999327 2.94836 0.998126 2.97045 1.00279 2.99167C1.0681 3.29605 1.38029 4.56667 2.34904 6.32667C3.33748 8.12292 4.02248 9.04324 5.47404 10.4898C6.9256 11.9364 7.87498 12.6626 9.6731 13.651C11.4331 14.6198 12.7044 14.9323 13.0081 14.997C13.0294 15.0016 13.0515 15.0004 13.0721 14.9935C13.0928 14.9865 13.1111 14.9741 13.1253 14.9576C13.5271 14.4834 13.8862 13.9747 14.1984 13.4373C14.5186 12.8806 14.7849 12.2946 14.9937 11.6873C15.0004 11.6666 15.0014 11.6445 14.9967 11.6233C14.992 11.6021 14.9817 11.5826 14.9669 11.5667V11.5667Z" fill="black"/>
</svg>
