<svg width="20" height="20" viewBox="0 0 20 20" fill="none" xmlns="http://www.w3.org/2000/svg">
<path d="M14.1925 10.4425L7.94254 16.6925C7.88447 16.7506 7.81553 16.7967 7.73966 16.8281C7.66379 16.8595 7.58247 16.8757 7.50035 16.8757C7.41823 16.8757 7.33691 16.8595 7.26104 16.8281C7.18517 16.7967 7.11623 16.7506 7.05816 16.6925C7.00009 16.6345 6.95403 16.5655 6.9226 16.4897C6.89117 16.4138 6.875 16.3325 6.875 16.2503C6.875 16.1682 6.89117 16.0869 6.9226 16.011C6.95403 15.9352 7.00009 15.8662 7.05816 15.8082L12.8668 10.0003L7.05816 4.19253C6.94088 4.07526 6.875 3.9162 6.875 3.75035C6.875 3.5845 6.94088 3.42544 7.05816 3.30816C7.17544 3.19088 7.3345 3.125 7.50035 3.125C7.6662 3.125 7.82526 3.19088 7.94254 3.30816L14.1925 9.55816C14.2506 9.61621 14.2967 9.68514 14.3282 9.76101C14.3597 9.83688 14.3758 9.91821 14.3758 10.0003C14.3758 10.0825 14.3597 10.1638 14.3282 10.2397C14.2967 10.3156 14.2506 10.3845 14.1925 10.4425Z" fill="#343330"/>
</svg>
